<svg width="390" height="255" viewBox="0 0 390 255" fill="none" xmlns="http://www.w3.org/2000/svg">
<path d="M200.653 209.12C178.054 211.458 22.1557 224.21 2.73303 230.062C-16.6897 235.915 99.7797 233.632 114.689 232.807C129.599 231.982 141.226 235.232 124.182 239.519C107.139 243.807 191.161 240.897 237.541 237.467C283.922 234.036 239.463 230.187 266.735 227.365C294.041 224.512 389.193 217.197 366.336 213.666C343.478 210.136 399.147 205.435 386.057 202.821C373.001 200.205 241.072 204.908 200.653 209.12Z" fill="#00FF85" fill-opacity="0.08"/>
<g style="mix-blend-mode:luminosity" clip-path="url(#clip0_20_679)">
<path d="M122.677 206.726C122.677 206.726 118.146 218.317 118.679 218.85C119.212 219.427 123.743 219.605 124.143 219.605C124.499 219.605 133.961 219.605 133.961 219.605C133.961 219.605 137.604 211.167 137.293 210.901C136.982 210.678 129.119 205.705 129.119 205.705L122.677 206.726Z" fill="#1631A4"/>
<path d="M132.317 210.856C132.317 210.856 125.165 211.833 118.99 207.925C118.99 207.925 128.319 154.145 128.808 151.17C129.297 148.194 128.319 110.446 128.319 110.446L142.58 106.094C142.58 106.094 145.645 164.093 145.467 163.56C145.334 163.072 132.317 210.856 132.317 210.856Z" fill="#1631A4"/>
<path d="M102.552 137.847C102.508 137.669 100.198 120.039 115.658 117.374C120.056 116.619 123.832 117.374 126.986 119.595C132.806 123.68 134.139 131.319 134.183 131.674L131.562 132.118C131.473 131.541 128.941 117.774 116.058 119.994C103.13 122.215 105.04 136.87 105.129 137.492L102.552 137.847Z" fill="#01008A"/>
<path d="M147.511 13.2785C147.511 13.2785 146.312 21.7607 143.824 26.8678C141.336 31.9749 140.092 31.4864 139.47 31.4864C138.848 31.4864 126.809 24.5141 126.809 24.5141L123.61 13.5894L132.939 7.2832L140.758 9.05958L147.511 13.2785Z" fill="white"/>
<path d="M138.048 30.8203C138.048 30.8203 135.25 30.9535 134.45 35.6165C133.695 40.2795 133.695 40.2795 133.695 40.2795L122.766 36.8156L128.053 23.626L138.048 30.8203Z" fill="white"/>
<path d="M131.562 17.8084C131.562 17.8084 130.452 13.8559 127.875 15.1882C125.298 16.5205 128.364 22.3826 130.141 21.894L127.52 24.9583L126.409 27.7117C126.409 27.7117 118.19 21.0059 118.945 13.7227C119.701 6.48395 124.054 6.61717 124.054 6.61717C124.054 6.61717 123.121 1.86536 129.163 0.222204C135.205 -1.42095 152.176 7.683 156.441 5.3293C156.441 5.3293 151.287 20.0733 143.513 15.3214C135.738 10.5696 131.562 17.8084 131.562 17.8084Z" fill="#231F20"/>
<path d="M122.766 36.8157L123.121 32.8188L136.494 36.8157L137.249 42.8998L122.766 36.8157Z" fill="#E5E5E6"/>
<path d="M159.995 81.4027C159.995 81.4027 164.57 80.1149 166.17 79.2711C167.769 78.3829 169.057 77.3171 169.813 77.8056C170.568 78.2941 167.591 80.781 167.369 81.003C167.147 81.2251 173.633 81.2695 174.522 81.4027C175.41 81.5804 178.298 82.2909 178.298 82.8238C178.298 83.3568 174.699 89.7517 173.855 90.1958C172.967 90.6399 163.993 90.4179 163.371 89.9294C162.749 89.4853 157.862 87.9754 157.862 87.9754C157.862 87.9754 159.728 81.4916 159.995 81.4027Z" fill="white"/>
<path d="M160.794 80.7809C160.794 80.7809 147.644 77.7166 146.889 74.1639C146.223 71.0108 142.58 77.2725 142.58 77.2725L143.424 85.7992C143.424 85.7992 150.665 89.2631 160.261 89.2631L161.994 86.0212C161.994 86.0212 162.838 81.3582 160.794 80.7809Z" fill="#CBCBCB"/>
<path d="M143.557 213.077C143.557 213.077 145.645 217.784 148.799 220.271C151.954 222.758 154.175 221.382 155.863 225.201C155.863 225.201 131.34 225.423 130.585 225.201C129.785 224.979 134.85 213.921 135.783 213.299C136.716 212.766 143.557 213.077 143.557 213.077Z" fill="#1631A4"/>
<path d="M130.496 212.988C130.496 212.988 138.315 216.452 145.512 215.475C145.512 215.475 156.885 153.568 156.663 151.259C156.441 148.95 147.2 89.2632 147.2 89.2632L122.322 95.1697C122.322 95.1697 125.52 118.085 127.608 118.44C129.696 118.796 130.896 120.128 130.896 120.128C130.896 120.128 139.203 154.812 138.892 157.876C138.581 160.94 130.496 212.988 130.496 212.988Z" fill="#01008A"/>
<path d="M149.377 89.4407C147.866 91.8388 135.205 94.5922 127.697 95.3028C124.898 95.5692 122.855 95.5692 122.322 95.1251C120.323 93.5708 120.767 88.6413 120.456 87.7532C120.145 86.865 120.456 87.087 120.678 86.4209C120.9 85.7547 121.122 84.4224 120.456 83.5787C120.1 83.1346 119.745 72.7427 119.479 62.4397C119.212 52.4032 119.079 42.4554 119.123 41.7893C119.567 37.8368 122.766 36.8154 122.766 36.8154C122.766 36.8154 134.317 38.9027 137.249 42.8995C151.598 62.3953 151.465 86.1544 149.377 89.4407Z" fill="#6DED02"/>
<path d="M110.105 111.423C110.105 111.423 109.216 123.281 110.105 124.125C110.993 124.968 112.326 123.814 113.303 124.125C114.281 124.435 115.347 124.391 115.791 123.947C116.235 123.547 116.546 123.148 117.613 123.192C118.679 123.236 119.656 123.503 120.012 122.926C120.367 122.348 120.811 121.549 121.611 121.416C122.455 121.238 123.166 121.238 123.21 120.35C123.255 119.462 121.344 115.243 121.344 115.243L121.478 117.641C121.478 117.641 123.033 117.463 123.521 116.175C123.965 114.887 117.035 108.048 117.035 108.048L110.105 111.423Z" fill="white"/>
<path d="M109.971 112.933C109.971 112.933 116.546 109.647 118.501 109.647C118.501 109.647 118.768 106.45 117.213 106.094L108.639 109.514C108.639 109.514 108.639 112.045 109.971 112.933Z" fill="#FFD648"/>
<path d="M131.695 57.1109C128.053 63.9055 121.478 77.4504 124.01 80.0706C126.542 82.6907 130.407 81.4917 127.653 82.7795C124.898 84.0674 122.366 84.6892 124.454 85.7106C126.542 86.6876 128.186 86.1547 126.098 88.1531C124.188 89.9739 124.721 94.3704 127.742 95.3474C124.943 95.6139 122.899 95.6139 122.366 95.1698C120.367 93.6155 120.811 88.686 120.5 87.7978C120.189 86.9096 120.5 87.1317 120.722 86.4655C120.945 85.7994 121.167 84.4671 120.5 83.6233C120.145 83.1792 119.789 72.7874 119.523 62.4844L132.762 45.4312C132.762 45.4312 135.294 50.2718 131.695 57.1109Z" fill="#09D191"/>
<path d="M132.229 52.2701C131.029 55.2899 129.474 58.3986 127.875 61.4184C127.875 61.4184 127.875 61.4184 127.83 61.4628C123.343 69.8118 118.279 77.7167 118.19 82.5573C118.057 89.2188 118.279 104.762 117.213 106.05C116.147 107.338 108.639 109.47 108.639 109.47C108.639 109.47 102.73 78.2052 103.308 75.8515C103.841 73.4978 115.48 47.5182 119.167 41.7894C122.855 36.105 136.76 40.8568 132.229 52.2701Z" fill="white"/>
<path d="M141.291 159.164L103.796 166.491C101.975 166.847 100.198 165.648 99.8424 163.871L95.0889 139.979C94.7335 138.114 95.933 136.337 97.7988 136.026L136.538 129.01C138.404 128.654 140.181 129.942 140.447 131.808L143.957 155.345C144.224 157.121 143.068 158.808 141.291 159.164Z" fill="white"/>
<path d="M140.447 131.808L139.514 145.219L101.575 152.591L95.0889 139.979C94.7335 138.114 95.933 136.337 97.7988 136.026L136.538 129.01C138.404 128.654 140.181 129.942 140.447 131.808Z" fill="#E5E5E6"/>
<path d="M103.841 149.616L106.817 148.95L108.639 157.299L105.573 157.876L103.841 149.616Z" fill="#1631A4"/>
<path d="M132.895 143.931L135.872 143.265L137.693 151.614L134.583 152.191L132.895 143.931Z" fill="#1631A4"/>
<path d="M162.171 80.7808C162.171 80.7808 163.638 84.2891 161.727 89.263H160.306C160.306 89.263 162.482 83.7562 160.839 80.7808H162.171Z" fill="#FFD648"/>
<path d="M127.875 61.4629C123.388 69.8119 118.323 77.7168 118.235 82.5574C118.101 89.2188 118.323 104.762 117.257 106.05C117.257 106.05 115.303 83.7121 113.614 81.9801C111.926 80.2925 111.526 79.2267 114.636 78.3829C117.657 77.628 127.209 62.4843 127.875 61.4629Z" fill="#E5E5E6"/>
<path d="M218.37 204.373C218.37 204.373 218.281 209.036 211.662 212.944C205.042 216.896 203.621 217.118 203.398 219.649L229.654 218.406L236.851 212.633C236.851 212.633 236.096 206.859 235.74 206.637C235.385 206.415 221.346 204.905 221.346 204.905L218.37 204.373Z" fill="#1631A4"/>
<path d="M230.009 99.6551V209.524C230.009 209.524 226.055 210.057 221.791 209.524C219.347 209.213 216.815 208.503 214.905 207.171C214.905 207.171 211.839 156.322 212.061 153.79C212.284 151.259 219.303 98.9001 219.658 98.8113C220.014 98.6781 230.009 99.6551 230.009 99.6551Z" fill="#1631A4"/>
<path d="M230.009 169.689V209.524C230.009 209.524 226.055 210.057 221.791 209.524C224.19 209.48 224.9 207.748 224.9 207.748C224.9 207.748 218.059 159.919 217.259 157.076C216.504 154.234 221.657 111.557 221.657 111.557L230.009 169.689Z" fill="#002F7A"/>
<path d="M182.557 85.142L182.557 85.1421L182.567 85.1428C182.764 85.159 182.974 85.1762 183.192 85.1942C184.174 85.275 185.331 85.3702 186.365 85.443C186.997 85.4876 187.587 85.524 188.066 85.5438C188.528 85.5628 188.929 85.5686 189.155 85.5403L189.169 85.5386L189.183 85.5361C189.803 85.4234 190.449 84.9922 190.712 84.3963C190.851 84.079 190.883 83.7039 190.718 83.3345C190.557 82.9766 190.24 82.6891 189.811 82.468C189.212 82.1596 189.051 81.7243 189.065 81.493C189.072 81.3788 189.115 81.3225 189.149 81.2968C189.182 81.2726 189.274 81.2261 189.477 81.2698C190.061 81.3948 191.679 81.9361 193.194 82.4632C193.942 82.7235 194.651 82.9756 195.174 83.1626C195.435 83.2561 195.649 83.3333 195.798 83.3871L195.809 83.391C195.811 83.3983 195.814 83.4058 195.817 83.4134C195.87 83.569 195.944 83.7933 196.028 84.0659C196.197 84.6124 196.401 85.3464 196.549 86.1058C196.699 86.872 196.785 87.6326 196.734 88.2434C196.681 88.88 196.497 89.1926 196.276 89.311L196.276 89.311L196.272 89.3135C196.21 89.3473 195.986 89.4346 195.579 89.5672C195.192 89.6932 194.681 89.8473 194.085 90.0166C192.894 90.355 191.372 90.7511 189.837 91.1016C188.3 91.4526 186.761 91.7551 185.53 91.9097C184.913 91.9871 184.388 92.0254 183.986 92.0173C183.785 92.0133 183.627 91.9978 183.51 91.9745C183.395 91.9515 183.352 91.927 183.348 91.9243C183.237 91.839 183.073 91.6102 182.886 91.1825C182.707 90.7714 182.537 90.248 182.379 89.6652C182.064 88.5032 181.812 87.1595 181.635 86.1203C181.552 85.5513 182 85.0863 182.557 85.142Z" fill="white" stroke="black"/>
<path d="M197.534 82.0245C197.534 82.0245 212.55 77.4503 213.039 76.7841C213.527 76.118 224.9 45.2534 225.167 44.7649C225.434 44.2764 227.744 46.0972 227.744 46.0972L221.302 83.1347L198.867 89.2632L197.534 82.0245Z" fill="#CBCBCB"/>
<path d="M194.958 82.5573C194.958 82.5573 196.424 84.8222 196.468 89.7517L198.867 89.2632C198.867 89.2632 199 83.0014 197.534 82.0244L194.958 82.5573Z" fill="#1631A4"/>
<path d="M231.92 210.723C231.92 210.723 230.809 218.406 224.989 220.626C219.169 222.847 218.37 225.689 218.37 225.689C218.37 225.689 244.892 226.355 245.336 225.689C245.78 225.023 239.739 209.613 239.383 209.524C239.072 209.435 231.92 210.723 231.92 210.723Z" fill="#1631A4"/>
<path d="M241.604 211.611C241.604 211.611 232.897 212.81 226.766 211.611C226.766 211.611 218.281 159.475 218.503 154.634C218.725 149.793 221.702 111.512 221.702 111.512C221.702 111.512 219.703 110.402 219.925 106.805C220.147 103.163 221.791 95.5693 221.791 95.5693L246.314 104.274C246.314 104.274 244.226 122.215 240.05 122.304C240.05 122.304 232.364 153.302 232.408 154.945C232.453 156.632 241.604 211.611 241.604 211.611Z" fill="#01008A"/>
<path d="M251.114 66.7643L251.114 66.7659C250.893 67.6987 250.166 70.1215 249.263 73.129C248.634 75.2237 247.92 77.6021 247.233 79.9582C246.4 82.8155 245.608 85.6316 245.067 87.8389C244.797 88.9413 244.586 89.9012 244.464 90.6423C244.404 91.012 244.363 91.338 244.35 91.6053C244.338 91.8475 244.342 92.1232 244.429 92.3377C244.531 92.5897 244.696 92.867 244.878 93.1499C244.977 93.3045 245.093 93.4791 245.214 93.662C245.311 93.8081 245.412 93.9596 245.51 94.1104C245.969 94.8144 246.473 95.6455 246.86 96.6104C247.599 98.4523 247.924 100.805 246.596 103.687C246.375 103.659 246.055 103.618 245.651 103.565C244.822 103.458 243.637 103.303 242.214 103.113C239.368 102.734 235.573 102.218 231.775 101.669C227.975 101.12 224.176 100.538 221.321 100.027C219.892 99.7718 218.709 99.5358 217.883 99.3321C217.467 99.2296 217.157 99.1391 216.956 99.0631C216.949 99.0604 216.942 99.0577 216.936 99.0551C216.939 99.023 216.942 98.9881 216.946 98.9504C216.968 98.7347 217.001 98.435 217.045 98.0592C217.133 97.3079 217.266 96.2565 217.444 94.9715L217.444 94.9715L217.444 94.9652C217.677 93.1086 218.01 90.7446 218.387 88.0744C218.442 87.686 218.498 87.2911 218.554 86.8904L218.554 86.8898C219.62 79.2538 221.074 69.3991 222.434 61.1276C223.114 56.9913 223.769 53.2548 224.34 50.3909C224.626 48.9585 224.89 47.7493 225.124 46.8196C225.362 45.8705 225.558 45.264 225.698 44.9975L225.7 44.9946C226.65 43.1586 227.804 42.2691 228.692 41.8329C229.139 41.6132 229.525 41.5052 229.794 41.4521C229.929 41.4256 230.034 41.4129 230.102 41.4068C230.136 41.4037 230.161 41.4023 230.175 41.4017L230.189 41.4012C230.189 41.4012 230.189 41.4012 230.189 41.4012C230.19 41.4012 230.19 41.4012 230.19 41.4012L230.192 41.4012L230.187 40.9012C230.192 41.4012 230.192 41.4012 230.192 41.4012L230.193 41.4012L230.195 41.4012L230.204 41.4011L230.242 41.4007L230.387 41.3997C230.516 41.3988 230.704 41.3978 230.945 41.3971C231.426 41.3958 232.117 41.396 232.953 41.4019C234.626 41.4137 236.877 41.4483 239.197 41.5396C241.519 41.631 243.899 41.7789 245.832 42.0158C246.799 42.1343 247.644 42.2739 248.308 42.4366C248.993 42.6046 249.409 42.7801 249.593 42.9294C249.654 42.9809 249.744 43.0941 249.851 43.3068C249.955 43.5154 250.06 43.7893 250.162 44.1279C250.366 44.8051 250.548 45.6967 250.706 46.7461C251.022 48.8422 251.234 51.5124 251.356 54.2353C251.478 56.9562 251.508 59.7181 251.461 61.9938C251.414 64.2916 251.288 66.0376 251.114 66.7643ZM216.777 98.9824C216.777 98.9824 216.778 98.9828 216.779 98.9835C216.778 98.9827 216.777 98.9824 216.777 98.9824Z" fill="white" stroke="black"/>
<path d="M243.115 37.3484L241.604 42.5443L234.763 44.1875L231.298 42.8996L230.454 42.5887C230.454 42.5887 230.409 39.0804 230.409 37.1708C230.409 35.2168 228.055 35.0835 228.055 35.0835L234.097 30.1985L234.407 29.9764L240.894 29.7544L243.115 37.3484Z" fill="white"/>
<path d="M231.609 38.3257C231.653 40.4573 231.475 41.9228 231.342 42.8999L230.498 42.589C230.498 42.589 230.454 39.0806 230.454 37.171C230.454 35.217 228.099 35.0838 228.099 35.0838L234.141 30.1987C235.029 31.2646 236.273 32.8633 236.273 32.8633C236.273 32.8633 231.564 34.24 231.609 38.3257Z" fill="#515BD4"/>
<path d="M231.253 42.189L230.542 42.5887L231.609 43.6989L231.253 42.189Z" fill="#E5E5E6"/>
<path d="M243.115 37.3486L231.253 42.1893L229.165 50.6715L243.959 41.2567L243.115 37.3486Z" fill="#CBCBCB"/>
<path d="M230.542 42.5885L230.498 39.3022L227.788 42.0112L230.542 42.5885Z" fill="#E5E5E5"/>
<path d="M185.627 88.7403L185.639 88.7169L185.65 88.6894C185.65 88.6895 185.65 88.6895 185.65 88.6892L185.65 88.6892L185.65 88.689L185.65 88.6887L185.651 88.6858L185.659 88.6665C185.667 88.6483 185.679 88.62 185.696 88.583C185.73 88.5089 185.782 88.4008 185.853 88.2714C185.996 88.011 186.212 87.6724 186.504 87.3511C187.085 86.711 187.924 86.1762 189.096 86.3808C190.213 86.5757 191.565 86.9747 192.851 87.3542C193.135 87.4382 193.416 87.5212 193.691 87.6008C194.437 87.8171 195.14 88.0095 195.706 88.1158C195.988 88.1688 196.255 88.2041 196.487 88.2061C196.696 88.2078 196.973 88.1849 197.195 88.0323C197.3 87.9606 197.424 87.8394 197.475 87.6518C197.527 87.4593 197.476 87.2899 197.416 87.1754C197.312 86.9788 197.12 86.8321 196.981 86.7361C196.733 86.5642 196.376 86.3731 196.026 86.1859C195.946 86.1433 195.867 86.1009 195.79 86.059C195.344 85.8184 194.932 85.5812 194.651 85.3487C194.534 85.2523 194.46 85.1726 194.417 85.1116C194.546 85.0865 194.745 85.0772 195.023 85.0939C195.627 85.1303 196.445 85.2783 197.349 85.4673C197.738 85.5487 198.15 85.6393 198.561 85.7298C199.076 85.843 199.59 85.9561 200.058 86.0508C200.901 86.2214 201.702 86.3563 202.255 86.3437C202.85 86.3302 203.51 86.2911 204.132 86.2542C204.529 86.2307 204.911 86.208 205.252 86.1935C205.704 86.1742 206.091 86.1683 206.385 86.1867C206.513 86.1947 206.614 86.2067 206.688 86.2211C206.693 86.256 206.698 86.2974 206.702 86.346C206.722 86.5731 206.729 86.8937 206.725 87.2861C206.716 88.0672 206.664 89.0832 206.598 90.0966C206.532 91.1081 206.451 92.1095 206.388 92.8584C206.356 93.2327 206.328 93.5437 206.308 93.761C206.307 93.7738 206.306 93.7864 206.305 93.7986L206.214 93.8352C205.975 93.931 205.633 94.068 205.218 94.2325C204.388 94.5616 203.27 95.0007 202.115 95.4409C200.959 95.8815 199.77 96.3218 198.798 96.6542C198.311 96.8205 197.883 96.9581 197.543 97.0549C197.185 97.157 196.974 97.1985 196.894 97.2015C196.816 97.2044 196.596 97.1767 196.212 97.0943C195.849 97.0165 195.388 96.9011 194.861 96.7579C193.807 96.4718 192.507 96.0801 191.235 95.6709C189.962 95.2616 188.724 94.8369 187.793 94.4855C187.326 94.3094 186.945 94.1546 186.677 94.0314C186.555 93.9753 186.465 93.9297 186.405 93.8952C186.391 93.8492 186.373 93.7897 186.353 93.7168C186.31 93.5575 186.258 93.3475 186.203 93.101C186.092 92.6084 185.967 91.9831 185.86 91.3506C185.753 90.7165 185.666 90.0848 185.626 89.5766C185.606 89.3216 185.6 89.1086 185.607 88.9469C185.613 88.7932 185.631 88.7375 185.629 88.7369C185.629 88.7368 185.628 88.738 185.627 88.7403ZM194.374 85.0303C194.374 85.0304 194.375 85.0317 194.375 85.0341C194.374 85.0315 194.374 85.0303 194.374 85.0303ZM194.313 85.1411C194.309 85.1432 194.307 85.1442 194.307 85.1441C194.307 85.144 194.309 85.1429 194.313 85.1411Z" fill="white" stroke="black"/>
<path d="M238.361 91.1727C235.874 90.5953 222.768 93.5264 216.948 94.903C217.215 92.7714 217.615 89.9736 218.059 86.8205L242.626 62.04L250.578 59.2866C250.578 59.2866 242.626 82.0687 239.961 84.0227C237.34 85.9767 238.406 87.9752 239.961 88.1972C241.471 88.4637 241.604 91.9276 238.361 91.1727Z" fill="#E5E5E5"/>
<path d="M211.153 93.0948L211.311 84.9413L211.626 84.8154C212.023 84.6567 212.59 84.4295 213.27 84.1556C214.632 83.6079 216.451 82.8734 218.276 82.1262C220.101 81.3793 221.935 80.6188 223.329 80.0196C224.024 79.7202 224.614 79.4593 225.039 79.2596C225.251 79.1602 225.428 79.0729 225.559 79.0017C225.624 78.9666 225.686 78.9307 225.738 78.8958C225.764 78.8786 225.796 78.8563 225.826 78.8298C225.848 78.8114 225.911 78.7567 225.959 78.67C225.984 78.6253 226.012 78.5561 226.031 78.5106L226.032 78.5092C226.057 78.4476 226.09 78.3644 226.13 78.2623C226.21 78.0576 226.321 77.7699 226.457 77.4111C226.732 76.6933 227.113 75.6862 227.569 74.4785C227.782 73.9137 228.012 73.305 228.255 72.6612C229.051 70.5513 229.989 68.0656 230.954 65.5203C233.481 58.8613 236.181 51.8391 237.036 50.0422C237.827 48.3793 239.529 47.1282 241.441 46.4397C243.358 45.749 245.368 45.6671 246.704 46.2055C247.317 46.4524 247.949 47.0324 248.531 47.9096C249.108 48.779 249.607 49.8989 249.97 51.1545C250.7 53.6725 250.865 56.6565 250.101 59.1393C249.72 60.3653 248.534 62.6647 246.92 65.4808C245.316 68.2789 243.318 71.5377 241.348 74.6574C239.379 77.7764 237.44 80.7527 235.956 82.9846C235.213 84.1007 234.585 85.0293 234.124 85.696C233.893 86.0296 233.705 86.2956 233.567 86.4858C233.498 86.5812 233.442 86.6549 233.401 86.7076C233.385 86.7284 233.373 86.7432 233.365 86.7532C233.359 86.7565 233.351 86.7605 233.341 86.7652C233.294 86.7889 233.223 86.8201 233.127 86.8588C232.935 86.9359 232.667 87.0322 232.33 87.1458C231.656 87.3725 230.73 87.6595 229.633 87.9858C227.441 88.638 224.586 89.4419 221.752 90.2244C218.919 91.0067 216.108 91.7669 214.006 92.3315C212.956 92.6138 212.082 92.8473 211.471 93.0101C211.355 93.0409 211.249 93.0692 211.153 93.0948ZM233.354 86.7672C233.355 86.7664 233.356 86.7656 233.356 86.7649L233.354 86.7672Z" fill="white" stroke="black"/>
<path d="M206.375 85.7103C206.375 85.7103 206.864 89.7072 205.797 94.5478L210.862 93.6596C210.862 93.6596 212.906 87.7976 210.818 84.6001L206.375 85.7103Z" fill="#1631A4"/>
<path d="M182.163 64.3938C182.119 64.1717 182.074 63.9941 182.03 63.8608C182.074 64.0385 182.119 64.1717 182.163 64.3938Z" fill="#F9A826"/>
<path d="M224.101 17.0532C224.101 17.0532 223.923 31.4863 224.101 33.3959C224.278 35.3056 225.567 35.6164 225.789 35.6608C226.055 35.7052 241.382 31.4419 241.382 31.4419L245.958 23.6259L239.383 13.6781L228.099 10.7915C228.143 10.7915 224.101 14.4775 224.101 17.0532Z" fill="white"/>
<path d="M225.123 15.0107C225.123 15.0107 226.988 13.5452 227.788 15.0107C228.588 16.4762 229.076 20.1622 233.386 20.251C237.695 20.3398 237.651 23.937 237.651 23.937C237.651 23.937 234.763 9.28185 234.452 9.0598C234.185 8.83775 224.9 7.68311 224.9 7.68311L225.123 15.0107Z" fill="#CBCBCB"/>
<path d="M237.606 23.9367C237.606 23.9367 239.339 21.2721 241.071 22.4267C242.804 23.5814 240.583 28.8661 237.162 29.7099C237.162 29.7099 238.317 35.4831 238.539 35.3943C238.761 35.3055 244.314 33.6179 244.314 33.6179C244.314 33.6179 251.956 25.1357 250.356 17.9858C248.757 10.8359 232.364 2.75333 228.677 3.28624C224.989 3.81916 224.323 7.94924 224.323 7.94924C224.323 7.94924 221.124 7.86042 220.591 9.41476C220.058 11.0135 218.148 19.4957 224.101 21.1833C224.101 21.1833 224.012 15.9874 225.123 14.9215C225.123 14.9215 226.011 12.8787 227.166 13.3672C228.321 13.8557 228.366 20.0286 233.386 20.1619C238.406 20.3839 237.606 23.9367 237.606 23.9367Z" fill="#231F20"/>
<path d="M240.716 23.9368C240.716 23.9368 238.806 22.6045 238.006 26.7346C237.961 26.7346 239.028 23.8924 240.716 23.9368Z" fill="#515BD4"/>
</g>
<defs>
<clipPath id="clip0_20_679">
<rect width="157" height="226" fill="white" transform="translate(95)"/>
</clipPath>
</defs>
</svg>
